<svg xmlns="http://www.w3.org/2000/svg" viewBox="0 0 866.66 1018.82"><defs><style>.cls-1{fill:#ff850d;}</style></defs><title>svgfix</title><g id="Layer_2" data-name="Layer 2"><g id="Layer_1-2" data-name="Layer 1"><path class="cls-1" d="M645.41,690.42a292.21,292.21,0,0,1-4.25,30.86h0c24.63-8.18,47.47-15.27,63.51-20.13q1.74-17.53,1.76-35.55a357.88,357.88,0,0,0-3-46.58c-21.74,27.09-41.93,51.85-58,71.39Z"/><path class="cls-1" d="M212.59,981.47c.09-.43,4.32-20.44,11.51-52.54v0C126.91,881.16,60,781.19,60,665.59c0-162,131.28-293.24,293.23-293.24a295.47,295.47,0,0,1,49.66,4.21v0Q418,350.29,435.59,322a354.19,354.19,0,0,0-82.36-9.65C158.15,312.36,0,470.5,0,665.59,0,811.31,88.25,936.42,214.22,990.41A12,12,0,0,1,212.59,981.47Z"/><path class="cls-1" d="M482,948.48h-.19c-2.31,0-6.52-.27-15.06-.83-7.38-.48-16.88-1.1-27.49-1.66h0A295,295,0,0,1,322,957.17h0c-16.64,11-44.69,32.69-64.35,48.55A353.72,353.72,0,0,0,621.38,895.52c-26.73,12.68-53.54,24.41-77.62,33.92C521.88,938.09,493.4,948.41,482,948.48Z"/><path class="cls-1" d="M799.37,475.82c11-14.87,31.1-43.07,43.52-80.56.43-1.31.85-2.64,1.25-4,.12-.42.24-.83.37-1.25.28-1,.55-1.92.82-2.89.12-.46.25-.91.37-1.37.28-1,.54-2.08.8-3.12l.27-1.07c.33-1.39.66-2.8,1-4.21.06-.3.13-.6.19-.9.24-1.13.48-2.26.7-3.4.1-.47.19-.94.28-1.42.19-1,.38-2,.56-3,.08-.47.17-.93.25-1.39.21-1.24.42-2.48.61-3.72,0-.21.07-.42.1-.63.23-1.45.43-2.9.63-4.35.06-.42.11-.83.17-1.25.14-1,.27-2.11.4-3.16.06-.49.11-1,.17-1.47.12-1,.23-2.09.34-3.13,0-.42.09-.84.13-1.26q.21-2.16.39-4.29c0-.19,0-.38.05-.56q.15-1.87.27-3.72l.09-1.37c.06-1,.12-2,.17-3,0-.46,0-.92.07-1.38.06-1.09.1-2.18.14-3.26l0-.9c0-1.36.08-2.71.11-4,0-.34,0-.67,0-1,0-1,0-2,0-3q0-1,0-2v-.7c0-1,0-2,0-2.92,0-.2,0-.39,0-.59,0-.78,0-1.55-.06-2.31l0-.82c0-.82-.06-1.63-.1-2.42,0-.12,0-.25,0-.36-.05-.91-.1-1.79-.15-2.67,0-.24,0-.47-.05-.7q-.07-1-.15-2l-.06-.67c-.07-.84-.14-1.66-.22-2.47,0-.11,0-.22,0-.33-.07-.69-.14-1.38-.22-2.05,0-.23-.06-.45-.08-.67-.08-.63-.16-1.24-.24-1.84l-.06-.44c-.11-.72-.22-1.43-.33-2.11l-.09-.5c-.09-.53-.18-1.05-.28-1.56,0-.18-.07-.37-.1-.55q-.19-1-.39-1.86c-125,75-312.68,214.22-461.52,422.57-.72,1-1.43,2-2.14,3-1.28,1.8-2.55,3.61-3.83,5.43l-.65.94c-1.14,1.64-2.28,3.28-3.42,4.94-.26.38-.53.75-.79,1.14-1.28,1.85-2.55,3.72-3.83,5.61l-.79,1.17q-1.73,2.54-3.44,5.1c-.21.31-.41.62-.62.92L366,745.87c-.28.44-.57.88-.86,1.32q-1.81,2.74-3.62,5.52l-.33.5c-1.29,2-2.58,4-3.87,6l-.89,1.37-3.87,6.06-.15.23q-1.87,3-3.74,5.93c-.29.47-.59.93-.88,1.39l-3.8,6.09-.5.82q-1.74,2.79-3.46,5.59l-.78,1.26-3.75,6.15-.71,1.16c-1.12,1.85-2.24,3.69-3.35,5.55l-.64,1.05-3.72,6.22-.79,1.33-3.43,5.78-.39.67c-1.24,2.1-2.47,4.19-3.69,6.29l-.83,1.42q-3.7,6.36-7.35,12.71l-.82,1.43c-1.2,2.09-2.39,4.19-3.58,6.28l-.38.66q-1.65,2.91-3.28,5.82c-.25.44-.5.88-.74,1.32q-1.76,3.12-3.5,6.24l-.56,1-3.13,5.63-.6,1.1c-1.15,2.07-2.28,4.13-3.41,6.19l-.69,1.26q-1.53,2.81-3.05,5.61l-.45.81-3.31,6.14c-.25.45-.49.91-.73,1.36-1.07,2-2.13,4-3.18,5.92,0,.09-.09.18-.14.27-1.09,2-2.16,4.07-3.24,6.1l-.72,1.38q-1.61,3-3.17,6l-.2.37c-1,1.9-2,3.79-3,5.67l-.69,1.32-3,5.84-.44.85-2.66,5.2-.6,1.17c-1,1.9-1.92,3.79-2.87,5.66l-.21.41c-10.67,23.7-17.44,40.85-20.58,49.11l1.62-1.15c5.72-10.89,16.31-26.44,35.86-46.49,22-22.57,51.35-46.69,87.26-71.7,44.53-31,99.45-63.58,163.23-96.79,12.2-6.35,28-13.15,45.3-19.93l30.39-21.53C612.37,711.66,724.18,577.61,799.37,475.82Z"/><path class="cls-1" d="M599.55,456.59C613.4,445.05,698,234.16,711.81,153c.14-.84.26-1.72.37-2.62l.09-.74q.12-1.14.21-2.31c0-.18,0-.36,0-.54.06-.95.11-1.93.15-2.92,0-.25,0-.5,0-.75,0-.81,0-1.63,0-2.46v-.93c0-.33,0-.68,0-1s0-.95,0-1.42l0-1.07-.06-1.45c0-.36,0-.73,0-1.1s-.05-1-.08-1.48l-.06-1.12c0-.51-.07-1-.11-1.55l-.09-1.1c0-.55-.09-1.11-.14-1.68,0-.34-.06-.67-.09-1-.06-.64-.13-1.3-.19-1.95l-.09-.8c-.09-.92-.2-1.86-.31-2.8l-.06-.49c-.09-.78-.19-1.56-.29-2.35,0-.34-.1-.69-.14-1-.08-.61-.17-1.23-.25-1.85-.06-.39-.12-.78-.17-1.17-.09-.58-.17-1.17-.26-1.75-.06-.42-.12-.83-.19-1.24-.09-.57-.17-1.14-.26-1.71l-.21-1.29c-.09-.57-.19-1.13-.28-1.7s-.15-.87-.23-1.31-.19-1.14-.29-1.71-.16-.87-.23-1.3c-.11-.59-.22-1.17-.32-1.76L708,98.23c-.11-.62-.23-1.23-.35-1.84-.08-.41-.15-.81-.23-1.21-.13-.68-.27-1.37-.41-2.06-.06-.33-.13-.66-.19-1l-.6-2.94c0-.11-.05-.21-.07-.32-.2-1-.4-1.91-.61-2.87-.07-.34-.14-.69-.22-1-.14-.68-.29-1.37-.44-2l-.27-1.2-.42-1.88c-.09-.42-.19-.85-.28-1.27l-.42-1.81-.3-1.29c-.13-.59-.27-1.18-.41-1.77-.1-.44-.21-.87-.31-1.3L702,70.65c-.1-.44-.21-.88-.32-1.32l-.42-1.73c-.1-.43-.21-.86-.31-1.28l-.45-1.78-.3-1.23-.47-1.85-.28-1.12L698.87,58c0-.18-.09-.36-.14-.54-.25-1-.51-1.94-.76-2.9-.07-.29-.15-.57-.22-.85l-.54-2-.3-1.09c-.15-.58-.31-1.16-.46-1.74-.11-.39-.22-.78-.32-1.16q-.23-.84-.45-1.65c-.11-.39-.21-.77-.32-1.15-.14-.53-.29-1.06-.44-1.59s-.22-.79-.32-1.18-.29-1-.43-1.53-.22-.76-.32-1.13-.29-1-.44-1.54-.21-.73-.31-1.09c-.14-.52-.29-1-.43-1.53l-.3-1c-.15-.53-.31-1.06-.46-1.59-.09-.3-.18-.6-.26-.9q-.27-.93-.54-1.83c-.06-.2-.11-.4-.17-.59-.23-.8-.47-1.58-.7-2.36,0-.2-.11-.39-.17-.59-.17-.57-.34-1.13-.5-1.69-.09-.28-.17-.55-.25-.83l-.42-1.38c-.09-.29-.17-.58-.26-.86l-.39-1.28c-.08-.28-.17-.57-.26-.85s-.24-.79-.35-1.17l-.27-.87c-.12-.38-.23-.75-.35-1.12s-.15-.52-.23-.77l-.36-1.13-.21-.69c-.12-.38-.23-.75-.35-1.12-.06-.2-.13-.41-.19-.62l-.33-1-.19-.61c-.11-.34-.21-.67-.31-1s-.12-.36-.17-.54c-.16-.48-.31-1-.45-1.4l0-.07-.4-1.24-.1-.31c-.1-.3-.19-.6-.28-.88s-.09-.27-.14-.4l-.2-.64c-.05-.14-.09-.27-.13-.4s-.13-.4-.19-.58l-.11-.31c0-.17-.1-.32-.15-.47l-.12-.35c0-.13-.07-.24-.11-.35l-.09-.26c0-.11-.07-.21-.1-.31L682,.65c-.08-.24-.14-.4-.17-.51L681.81,0s-222,271.49-315,471c-62.64,134.36-142.5,513-142.5,513S331.47,680,599.55,456.59Z"/><path class="cls-1" d="M866.64,681.21c0-.49,0-1-.07-1.48l-.06-.87c0-.52-.1-1.05-.17-1.57,0-.25-.05-.5-.08-.74-.11-.77-.23-1.53-.37-2.3v0a.51.51,0,0,0-.16-.25l-.06-.06a1.15,1.15,0,0,0-.35-.19l-.16-.05-.22-.07-.22,0-.27,0-.27,0-.31,0-.32,0H862l-.32,0-.54,0-.33,0-.61.05-.34,0-.69.07-.32,0-.79.09-.3,0-.89.11-.28,0-1,.14-.24,0-1.11.17-.2,0-1.23.2-.15,0-1.36.24h-.08c-26.65,4.67-86.11,20.38-148.11,39.29l-2.37.73-3.46,1.06-4.42,1.36-4.6,1.43-3.13,1-4.71,1.48-3.72,1.18-4.43,1.4-3.62,1.16-5.18,1.67-2.62.85-5.27,1.71-2.36.77-5.84,1.93-2.44.81-5.93,2-.85.29q-9.42,3.17-18.53,6.33l-.63.22-2.66.93-.9.32-2.56.9-.87.31c-2.71,1-5.39,1.91-8,2.87l-1.12.4-2.12.77-1.35.49-2,.73-1.47.54-1.92.71-1.48.55-3.16,1.17-1.74.66-1.7.64-1.61.61-1.66.63-1.63.62-1.58.61-1.7.66-1.47.57-1.93.76-2,.78-.83.32-1.2.48-1.37.55-1.63.65-1.36.55-1.6.66-1.32.54-1.58.65-1.28.53-1.75.73-1,.43-2.64,1.12-.92.4-1.76.76-1.08.47-1.52.67-1.12.49-1.47.66-1.05.47-1.57.72-.86.4-2.2,1-.34.16-2.12,1-.76.37-1.48.72-.83.41-.68.34-.68.34-.81.4-1.34.69-1,.51-6.53,3.42-2.47,1.3-4,2.11-.18.1-1.3.69-5.29,2.82-2.26,1.21-4.42,2.37-2.43,1.31-4.17,2.27-2.39,1.3-4.22,2.31-2.17,1.19-4.51,2.49-1.77,1-5.53,3.09-.62.35-6.32,3.56-.06,0c-2,1.12-4,2.25-5.92,3.37l-1.29.73-4.62,2.66-1.57.91L452.89,820l-1.59.93-4.26,2.5-1.41.83L441.05,827l-1,.56q-8.44,5-16.41,9.94l-.57.35-4.59,2.83-1,.62-4.11,2.57-1.08.68-4,2.54-.93.6L403,850.42l-.47.3q-7.41,4.77-14.37,9.38l-.22.14-4.24,2.84-.63.42-3.8,2.56-.7.48-3.7,2.53-.63.42-3.91,2.71-.26.17q-6.39,4.44-12.35,8.74l-.1.07-3.71,2.69-.47.34-3.28,2.4-.59.45c-1.07.78-2.12,1.56-3.16,2.34l-.5.37-3.34,2.51-.21.16q-5.4,4.09-10.42,8l-.16.13-3,2.4-.47.37-2.67,2.15-.56.45L322.52,908l-.53.43-2.64,2.17-.31.27q-4.47,3.71-8.59,7.26l-.32.28-2.3,2c-.19.16-.38.32-.56.49l-2,1.78-.62.55L302.72,925l-.61.54-1.94,1.77-.47.43-2.31,2.13,0,0c-1.57,1.46-3.09,2.89-4.56,4.31l-.5.48-1.62,1.56-.64.63-1.43,1.41-.66.64c-.46.46-.91.92-1.37,1.37l-.64.64-1.37,1.39-.55.57-1.53,1.57-.33.35-1.83,1.91-.23.24-1.49,1.6-.55.6c-.38.4-.76.81-1.12,1.21-.21.23-.42.45-.62.68l-1,1.11-.62.69-1,1.08-.6.68-1,1.09c-.17.21-.35.42-.53.62-.37.42-.72.84-1.08,1.26-.12.13-.24.27-.35.41l-1.39,1.65c-.1.11-.19.22-.28.34-.36.42-.71.85-1.06,1.27a1.47,1.47,0,0,1-.1.13l-.18.23c-.56.67-1.09,1.34-1.62,2l-.2.25c-.55.7-1.09,1.38-1.61,2.06-.11.13-.21.27-.31.4-.52.67-1,1.34-1.52,2l-.17.23c-.46.62-.92,1.23-1.36,1.84l-.19.26c-.46.63-.9,1.25-1.33,1.86l-.24.35c-.44.61-.86,1.22-1.26,1.81l-.09.14c-.4.57-.78,1.14-1.15,1.7l-.16.24-1.08,1.68-.18.28c-.36.56-.71,1.11-1,1.65h0l-1,1.59-.14.22-.86,1.49-.12.22q-.85,1.49-1.56,2.85l-.11.19-.66,1.29a1.3,1.3,0,0,0-.08.17c-.43.86-.83,1.67-1.18,2.44L248,991l-.49,1.09-.05.11-.44,1v0c-.14.34-.27.66-.39,1l-.06.13-.34.89,0,.07c-.11.29-.21.56-.3.82v0c-.1.27-.18.52-.26.76l0,.11c-.07.23-.15.46-.21.68v0q-.1.32-.18.6l0,0c-.05.19-.1.37-.14.54l0,.07c-.05.17-.09.33-.12.47h0c0,.14-.07.28-.1.4v0c0,.12,0,.22-.06.32v.05c0,.09,0,.17,0,.24v0c0,.07,0,.12,0,.17v0a.65.65,0,0,0,0,.11h0v0s63.61-51.93,82.67-60.66q.57-.27,1.17-.51l.4-.16.83-.33.5-.18c.26-.1.53-.2.81-.29l.53-.18.84-.27.56-.17.9-.27.54-.16,1-.27c.15,0,.3-.09.46-.12l1.54-.38.34-.08,1.27-.28.61-.13,1.05-.22.69-.13,1-.19.74-.13,1-.18.75-.12,1.12-.18.7-.11L348,935l.52-.07,1.89-.25.52-.06,1.43-.17.75-.09,1.25-.13.79-.08,1.26-.12.81-.08,1.29-.12.78-.06,1.47-.12.62,0,2-.14h.12l2.23-.14.36,0,1.86-.1.58,0,1.68-.08.65,0,1.66-.08.62,0,1.8-.07.48,0,2.15-.06h.15c2.4-.07,4.84-.12,7.29-.15h.26l2.16,0h5.19c19.94,0,40.52,1,57,1.94l1.12.07.8,0,2.89.18.69,0,6.52.41.24,0,1.87.12.71.05,1.53.1,1.61.1,3,.2.47,0,1.4.09.52,0,1.59.1h.09l1.53.09.33,0,1.08.06.34,0,1.18.07h.13l.89,0h.26l.69,0H482l.86,0,.34,0,.64-.06.43-.06.66-.08.53-.09.68-.11.59-.11.73-.14.64-.14.79-.17.7-.16.83-.2.78-.19.86-.21.82-.22.92-.25.88-.24,1-.27.93-.26,1-.3,1-.29,1.07-.32,1-.32,1.11-.34,1.07-.34,1.16-.37,1.12-.36,1.2-.4,1.16-.38,1.26-.43,1.2-.4,1.3-.45,1.24-.43,1.33-.46,1.31-.46,1.37-.49,1.32-.47,1.44-.52,1.34-.49,1.49-.54,1.4-.52,1.5-.56,1.44-.54,1.54-.57,1.48-.57,1.57-.6,1.53-.58,1.61-.63,1.54-.59,1.67-.66,1.56-.61,1.73-.69,1.56-.62,1.76-.7,1.62-.65,1.77-.72,1.65-.67,1.81-.74,1.67-.68,1.89-.78,1.65-.68,2-.82,1.65-.69,1.93-.81,1.74-.73,2-.85,1.71-.73,2.14-.91,1.62-.7,2.46-1.06,1.34-.59c1.27-.54,2.54-1.1,3.81-1.66l.69-.3,3.24-1.43,1.6-.71c.79-.35,1.57-.69,2.35-1l1.75-.78,2.22-1,1.86-.84,2.18-1,1.85-.84,2.2-1,1.92-.88,2.18-1,2-.91,2.14-1,2-.95,2.13-1,2-1,2.18-1,2-1,2.17-1,2.05-1,2.19-1.05,2.07-1,2.18-1,2.11-1,2.18-1.07,2.08-1,2.24-1.1,2.06-1,.37-.19,1.88-.93,2.07-1,2.27-1.14,2.08-1,2.26-1.15,2.09-1.06,2.28-1.16,2.09-1.07,2.26-1.16L660,863l2.27-1.18,2.1-1.09,2.27-1.19,2.12-1.11,2.27-1.2,2.11-1.12,2.27-1.21,2.11-1.13,2.25-1.21,2.14-1.16,2.25-1.22,2.11-1.15,2.28-1.25,2.09-1.15,2.29-1.27,2.06-1.15,2.32-1.29,2-1.15,2.29-1.29,2-1.17,2.27-1.29,2.06-1.18,2.26-1.31,2-1.18,2.29-1.34,2-1.17,2.34-1.38,1.93-1.14,2.35-1.4,1.91-1.14,2.45-1.48,1.76-1.07,2.71-1.65,1.5-.92,4.17-2.57.21-.14q2-1.22,3.91-2.45l1.57-1,2.54-1.61,1.78-1.15L750,811.3l1.85-1.2,2.19-1.43,1.85-1.22L758,806l1.83-1.22,2.14-1.43,1.82-1.23,2.09-1.43,1.82-1.25,2.06-1.41,1.8-1.26c.68-.47,1.36-.94,2-1.42s1.2-.84,1.79-1.27l2-1.4,1.78-1.29,2-1.41,1.75-1.28,1.92-1.41,1.74-1.29,1.89-1.41,1.72-1.3,1.84-1.4,1.7-1.31,1.82-1.4,1.67-1.32c.6-.46,1.19-.93,1.78-1.4l1.65-1.31,1.74-1.41,1.62-1.31,1.71-1.41,1.58-1.31,1.69-1.42L810.5,767l1.65-1.42c.51-.43,1-.87,1.51-1.31l1.61-1.41,1.49-1.32,1.56-1.41,1.45-1.32,1.53-1.4,1.42-1.32,1.49-1.42,1.37-1.3L827,752l1.33-1.3,1.41-1.42c.44-.44.87-.87,1.29-1.31s.93-.95,1.38-1.42l1.25-1.3c.45-.47.89-1,1.34-1.43l1.2-1.29,1.29-1.42,1.16-1.29c.43-.48.84-1,1.26-1.44l1.1-1.27c.42-.48.82-1,1.23-1.46l1-1.24,1.2-1.48c.33-.41.66-.81,1-1.22s.78-1,1.17-1.51.62-.79.92-1.19.76-1,1.14-1.53l.85-1.16,1.13-1.59.76-1.08q.62-.9,1.2-1.8l.59-.88c.58-.89,1.14-1.77,1.68-2.66.1-.15.18-.3.27-.45.45-.73.89-1.47,1.32-2.2l.53-1c.32-.56.64-1.12.94-1.68l.56-1.08c.27-.52.55-1,.81-1.55s.36-.76.54-1.14.49-1,.71-1.49.35-.78.52-1.17.43-1,.62-1.44.32-.79.48-1.19.38-.94.55-1.41.29-.8.43-1.2.33-.93.48-1.39.26-.81.38-1.21.29-.91.42-1.37.22-.8.32-1.2.24-.91.35-1.36.18-.81.27-1.21.2-.89.28-1.34.14-.8.21-1.2.15-.89.22-1.34.1-.8.15-1.2.11-.88.15-1.32l.09-1.19c0-.44.06-.87.08-1.31s0-.79,0-1.19,0-.9,0-1.35S866.65,681.51,866.64,681.21Z"/></g></g></svg>